<?xml version="1.0" standalone="no"?>
<!DOCTYPE svg PUBLIC "-//W3C//DTD SVG 20010904//EN"
 "http://www.w3.org/TR/2001/REC-SVG-20010904/DTD/svg10.dtd">
<svg version="1.0" xmlns="http://www.w3.org/2000/svg"
 width="480.000000pt" height="480.000000pt" viewBox="0 0 480.000000 480.000000"
 preserveAspectRatio="xMidYMid meet">
<metadata>
Created by potrace 1.14, written by Peter Selinger 2001-2017
</metadata>
<g transform="translate(0.000000,480.000000) scale(0.100000,-0.100000)"
fill="#000000" stroke="none">
<path d="M2230 4385 c-274 -53 -488 -190 -651 -414 -41 -57 -103 -183 -129
-261 -38 -112 -49 -214 -50 -466 0 -131 -2 -239 -3 -240 -1 -2 -86 -4 -187 -5
-173 -2 -190 -3 -254 -28 -110 -41 -217 -159 -244 -268 -4 -16 -7 -471 -7
-1014 l0 -985 38 -76 c44 -91 102 -146 197 -192 l65 -31 1395 0 1395 0 55 24
c73 33 146 94 187 158 66 103 64 67 61 1140 l-3 969 -38 76 c-58 118 -156 195
-277 218 -29 5 -126 10 -216 10 l-164 0 -1 233 c-1 298 -7 353 -51 482 -26 75
-99 225 -110 225 -4 0 -8 5 -8 11 0 7 -24 42 -54 78 -146 179 -347 301 -576
351 -77 17 -292 20 -370 5z m358 -418 c123 -43 191 -91 287 -202 37 -43 92
-160 109 -234 10 -45 15 -129 16 -297 l1 -234 -601 0 -600 0 0 233 c0 263 12
335 72 450 43 81 164 202 245 245 143 75 325 90 471 39z"/>
</g>
</svg>
